<?xml version="1.0" standalone="no"?>
<!DOCTYPE svg PUBLIC "-//W3C//DTD SVG 20010904//EN"
 "http://www.w3.org/TR/2001/REC-SVG-20010904/DTD/svg10.dtd">
<svg version="1.0" xmlns="http://www.w3.org/2000/svg"
 width="1300.000000pt" height="1300.000000pt" viewBox="0 0 1300.000000 1300.000000"
 preserveAspectRatio="xMidYMid meet">
<metadata>
Created by potrace 1.11, written by Peter Selinger 2001-2013
</metadata>
<g transform="translate(0.000000,1300.000000) scale(0.100000,-0.100000)"
fill="#000000" stroke="none">
<path d="M6469 11987 c-15 -23 -113 -193 -219 -377 -106 -184 -201 -348 -211
-365 -11 -16 -22 -37 -26 -45 -4 -8 -33 -59 -65 -113 -32 -54 -58 -100 -58
-103 0 -2 -16 -28 -35 -58 -19 -30 -35 -57 -35 -60 0 -2 -53 -96 -119 -208
-137 -237 -387 -670 -410 -711 -9 -16 -21 -36 -26 -45 -6 -9 -37 -63 -69 -120
-32 -56 -62 -105 -67 -108 -5 -3 -7 -9 -4 -14 3 -4 -2 -13 -10 -20 -8 -7 -15
-18 -15 -25 0 -8 -3 -15 -7 -17 -5 -1 -17 -19 -27 -38 -10 -19 -43 -75 -71
-125 -47 -80 -305 -527 -615 -1065 -59 -102 -151 -261 -205 -355 -54 -93 -106
-183 -115 -200 -30 -53 -201 -348 -240 -415 -21 -36 -138 -238 -260 -450 -122
-212 -257 -446 -300 -520 -43 -74 -137 -238 -210 -365 -73 -126 -139 -241
-148 -255 -9 -14 -15 -27 -13 -29 1 -2 -1 -7 -6 -10 -4 -3 -13 -15 -19 -26 -6
-11 -37 -65 -69 -120 -173 -298 -280 -485 -303 -525 -14 -25 -56 -99 -95 -165
-38 -66 -92 -158 -119 -205 -27 -47 -53 -92 -58 -100 -6 -8 -16 -26 -23 -40
-6 -14 -37 -68 -68 -120 -31 -52 -108 -185 -171 -295 -229 -398 -391 -679
-485 -838 -35 -59 -63 -110 -63 -113 0 -3 -8 -18 -19 -32 -10 -15 -29 -47 -43
-72 -53 -95 -70 -125 -78 -135 -4 -5 -24 -41 -45 -80 -20 -38 -44 -77 -51 -86
-8 -8 -14 -18 -14 -22 0 -5 -185 -329 -210 -367 -5 -8 -24 -42 -43 -75 -18
-33 -69 -121 -112 -195 -167 -289 -191 -330 -283 -490 -52 -91 -118 -205 -147
-255 -29 -49 -62 -106 -73 -125 -10 -19 -58 -101 -105 -182 l-85 -148 987 0
987 0 41 72 c23 40 51 91 64 113 12 22 42 76 67 120 24 44 48 85 52 90 4 6 23
39 42 75 20 36 61 109 92 162 31 54 56 101 56 104 0 3 8 18 18 32 11 15 32 52
49 82 49 90 215 384 223 395 4 6 21 35 37 65 17 30 72 129 123 220 52 91 110
194 130 230 20 36 67 119 105 185 37 66 79 140 93 165 14 25 54 97 90 160 36
63 93 165 127 225 34 61 151 268 260 460 108 193 222 395 253 450 30 55 62
108 70 118 8 9 12 17 8 17 -4 0 1 12 12 28 10 15 30 47 44 72 36 64 236 420
448 795 9 17 68 120 130 230 62 110 161 286 220 390 59 105 118 208 130 230
12 22 31 56 42 75 11 19 33 58 48 85 16 28 115 203 220 390 106 187 225 399
265 470 40 72 82 146 94 165 11 19 30 53 42 75 12 21 77 137 145 257 68 120
124 222 124 228 0 5 5 10 10 10 6 0 10 4 10 9 0 5 28 58 62 118 33 59 75 133
91 163 17 30 50 88 74 128 24 41 43 76 43 78 0 2 10 21 23 42 13 20 38 63 55
95 50 91 88 159 115 206 l25 43 37 -68 c21 -38 48 -86 61 -106 13 -21 24 -40
24 -42 0 -3 46 -88 101 -188 56 -101 112 -203 126 -228 13 -25 28 -53 34 -62
5 -10 13 -26 18 -35 6 -10 20 -36 32 -58 11 -22 57 -104 100 -182 43 -78 79
-144 79 -147 0 -4 11 -23 23 -44 13 -20 43 -73 67 -117 24 -44 51 -93 60 -110
9 -16 47 -86 85 -155 117 -216 127 -235 135 -245 4 -5 26 -45 49 -88 23 -43
63 -117 90 -165 54 -98 103 -188 151 -277 18 -33 71 -130 118 -215 47 -85 96
-175 110 -200 13 -25 40 -74 60 -110 19 -36 54 -99 77 -140 23 -41 64 -115 90
-165 27 -49 67 -124 90 -165 23 -41 56 -101 74 -132 17 -32 45 -84 63 -115 82
-150 121 -222 173 -318 21 -38 57 -104 80 -145 23 -41 59 -106 80 -145 21 -38
48 -88 60 -110 12 -22 38 -69 58 -105 19 -36 52 -94 72 -130 19 -36 43 -81 53
-100 9 -19 19 -37 22 -40 5 -5 14 -21 80 -145 24 -44 65 -120 93 -170 27 -49
62 -112 77 -140 40 -72 240 -438 282 -515 20 -36 47 -85 60 -110 29 -51 44
-80 195 -355 180 -327 184 -335 181 -336 -5 -2 -837 -7 -2148 -14 -2484 -13
-2842 -15 -2850 -20 -5 -3 -32 -49 -61 -103 -28 -53 -64 -119 -79 -147 -54
-98 -218 -402 -265 -490 -69 -129 -99 -185 -172 -320 -36 -66 -84 -154 -106
-195 -22 -41 -55 -102 -73 -136 -19 -33 -34 -64 -34 -67 0 -4 1937 -7 4305 -7
2683 0 4305 4 4305 9 0 6 -4 12 -9 15 -5 4 -25 34 -44 69 -28 50 -177 309
-268 465 -10 17 -27 47 -37 65 -11 17 -79 136 -152 262 -73 127 -144 250 -158
275 -13 25 -28 50 -32 55 -4 6 -19 30 -32 55 -14 25 -49 86 -78 135 -29 50
-66 115 -83 145 -16 30 -33 60 -37 65 -4 6 -17 26 -28 45 -10 19 -70 123 -132
230 -62 107 -164 285 -228 395 -63 110 -123 214 -133 230 -10 17 -24 41 -32
55 -28 53 -292 508 -333 577 -24 40 -44 74 -44 76 0 2 -37 67 -81 143 -99 168
-113 193 -152 264 -16 30 -36 62 -43 71 -8 8 -14 18 -14 21 0 4 -39 73 -86
155 -48 81 -172 297 -277 478 -104 182 -215 373 -245 425 -144 248 -203 351
-220 382 -11 18 -34 58 -52 88 -18 30 -47 80 -63 110 -17 30 -90 156 -162 280
-72 124 -134 232 -138 240 -4 8 -17 31 -28 50 -12 19 -82 141 -157 270 -74
129 -175 303 -222 385 -169 292 -243 420 -266 460 -12 22 -92 161 -178 308
-86 148 -156 271 -156 273 0 2 -11 21 -24 42 -18 29 -376 646 -456 787 -35 62
-81 141 -89 155 -13 20 -211 364 -236 409 -11 20 -41 70 -65 111 -25 41 -51
86 -57 100 -7 14 -22 41 -34 60 -19 31 -110 188 -159 275 -10 17 -32 55 -50
85 -32 54 -50 85 -90 155 -11 19 -70 121 -131 227 -61 106 -122 211 -134 233
-13 22 -56 96 -95 165 -40 69 -80 139 -90 155 -9 17 -52 91 -95 165 -43 74
-100 173 -126 219 -26 46 -51 87 -56 91 -4 5 -20 -11 -34 -33z"/>
<path d="M6417 5548 c-79 -156 -225 -439 -334 -648 -271 -522 -453 -877 -453
-884 0 -3 385 -6 855 -6 l855 0 -43 83 c-44 82 -138 262 -302 582 -48 94 -122
235 -163 315 -41 80 -104 201 -139 270 -36 69 -97 187 -136 263 -39 75 -74
137 -77 137 -3 0 -31 -51 -63 -112z"/>
</g>
</svg>
